<?xml version="1.0" standalone="no"?>
<!DOCTYPE svg PUBLIC "-//W3C//DTD SVG 20010904//EN"
 "http://www.w3.org/TR/2001/REC-SVG-20010904/DTD/svg10.dtd">
<svg version="1.0" xmlns="http://www.w3.org/2000/svg"
 width="504.000000pt" height="504.000000pt" viewBox="0 0 504.000000 504.000000"
 preserveAspectRatio="xMidYMid meet">
<metadata>
Created by potrace 1.14, written by Peter Selinger 2001-2017
</metadata>
<g transform="translate(0.000000,504.000000) scale(0.100000,-0.100000)"
fill="#000000" stroke="none">
<path d="M470 3441 c1 -775 4 -1412 7 -1415 4 -4 8 -12 9 -19 1 -7 5 -34 9
-62 4 -27 8 -62 9 -77 0 -16 4 -28 7 -28 3 0 6 -6 7 -12 1 -17 11 -68 18 -90
3 -10 8 -30 10 -45 3 -15 10 -33 16 -40 6 -7 8 -13 5 -13 -3 0 4 -24 15 -52
11 -29 23 -64 28 -78 29 -89 173 -368 211 -408 10 -11 15 -23 12 -26 -4 -3 -1
-6 5 -6 6 0 13 -8 16 -17 4 -10 19 -32 34 -50 15 -17 38 -47 52 -65 54 -71
166 -188 275 -286 75 -68 292 -219 308 -214 4 1 7 -2 7 -7 0 -10 258 -141 278
-141 7 0 20 -4 30 -10 24 -13 155 -58 206 -71 22 -5 48 -11 56 -13 8 -2 33 -9
55 -14 22 -6 58 -13 80 -16 22 -3 51 -7 65 -11 14 -3 53 -7 87 -9 34 -2 66 -6
70 -9 10 -5 322 0 378 6 101 12 147 19 192 30 l48 12 1 1070 c1 909 -1 1078
-14 1120 -22 78 -54 128 -122 193 -36 34 -110 82 -132 86 -7 1 -19 5 -25 9
-34 22 -157 31 -228 18 -88 -16 -182 -66 -243 -129 -46 -49 -100 -137 -106
-174 -1 -7 -5 -18 -9 -24 -3 -6 -6 -256 -6 -555 1 -623 14 -562 -106 -502 -38
20 -71 39 -73 44 -2 5 -9 9 -16 9 -19 0 -134 95 -209 174 -100 103 -226 304
-239 381 -1 11 -7 23 -11 26 -5 3 -10 17 -12 30 -6 38 -16 82 -20 90 -15 23
-18 240 -18 1452 l0 1347 -509 0 -509 0 1 -1409z"/>
<path d="M2597 4434 c-1 -1 -51 -4 -112 -7 -60 -3 -143 -11 -183 -17 -41 -7
-76 -9 -79 -6 -3 3 -12 -1 -19 -9 -12 -11 -14 -106 -14 -543 l0 -529 28 5 c15
2 32 8 37 12 6 5 55 18 110 30 116 26 353 32 445 11 288 -64 496 -183 660
-380 19 -23 45 -54 57 -69 13 -15 23 -33 23 -39 0 -7 4 -13 9 -13 11 0 114
-201 106 -208 -2 -3 0 -11 5 -18 6 -6 13 -20 15 -30 3 -11 11 -46 20 -79 8
-33 18 -85 21 -115 4 -30 7 -486 8 -1012 1 -526 4 -960 9 -964 4 -4 7 -2 7 4
0 7 5 12 11 12 11 0 162 103 187 127 7 7 18 13 23 13 5 0 9 7 9 15 0 8 5 15
11 15 21 0 178 155 291 287 45 53 192 275 223 338 17 33 33 62 36 65 7 6 19
41 18 54 0 5 4 12 11 16 6 4 12 13 14 21 1 8 8 24 14 37 7 12 10 22 6 22 -4 0
1 9 11 20 10 11 15 20 12 20 -3 0 1 17 9 37 9 20 17 44 19 52 2 9 10 35 19 58
8 24 13 43 9 43 -3 0 0 7 7 15 7 9 10 18 7 21 -3 3 -2 17 4 31 5 13 11 36 14
51 3 15 8 41 11 57 4 17 7 40 7 53 1 12 3 22 7 22 3 0 7 30 9 68 3 66 7 112
11 122 2 6 2 265 0 265 -1 0 -3 18 -6 40 -2 22 -6 60 -8 85 -2 25 -5 45 -6 45
-1 0 -3 14 -5 30 -11 103 -69 332 -101 402 -8 18 -21 50 -29 72 -23 66 -96
212 -147 296 -27 44 -55 89 -61 100 -7 10 -16 25 -22 32 -20 25 -31 39 -73 96
-23 31 -47 57 -53 57 -6 0 -8 4 -5 8 3 5 -5 18 -17 29 -12 11 -49 48 -82 83
-100 106 -284 252 -415 331 -114 67 -359 184 -410 195 -3 0 -12 3 -20 6 -40
14 -91 29 -107 32 -10 2 -38 9 -63 16 -25 7 -56 14 -70 16 -14 2 -45 9 -70 14
-85 17 -381 43 -393 34z"/>
</g>
</svg>
